<mxfile host="app.diagrams.net" modified="2022-10-10T05:38:02.546Z" agent="5.0 (Windows NT 10.0; Win64; x64) AppleWebKit/537.36 (KHTML, like Gecko) Chrome/98.0.4758.102 Safari/537.36" etag="oLrdtXg0XDL8FdxxxBtR" version="20.2.3" type="github">
  <diagram id="BzpOI8MvnMq6wD3kZA_l" name="第 1 页">
    <mxGraphModel dx="1209" dy="741" grid="1" gridSize="10" guides="1" tooltips="1" connect="1" arrows="1" fold="1" page="1" pageScale="1" pageWidth="827" pageHeight="1169" math="0" shadow="0">
      <root>
        <mxCell id="0" />
        <mxCell id="1" parent="0" />
        <mxCell id="pkmIxWvEJpx0Uxizd0hY-11" style="edgeStyle=orthogonalEdgeStyle;rounded=0;orthogonalLoop=1;jettySize=auto;html=1;exitX=1;exitY=0.5;exitDx=0;exitDy=0;entryX=0;entryY=0.5;entryDx=0;entryDy=0;" edge="1" parent="1" source="pkmIxWvEJpx0Uxizd0hY-1" target="pkmIxWvEJpx0Uxizd0hY-2">
          <mxGeometry relative="1" as="geometry" />
        </mxCell>
        <mxCell id="pkmIxWvEJpx0Uxizd0hY-12" style="edgeStyle=orthogonalEdgeStyle;rounded=0;orthogonalLoop=1;jettySize=auto;html=1;exitX=1;exitY=0.5;exitDx=0;exitDy=0;entryX=0;entryY=0.75;entryDx=0;entryDy=0;" edge="1" parent="1" source="pkmIxWvEJpx0Uxizd0hY-1" target="pkmIxWvEJpx0Uxizd0hY-6">
          <mxGeometry relative="1" as="geometry" />
        </mxCell>
        <mxCell id="pkmIxWvEJpx0Uxizd0hY-13" style="edgeStyle=orthogonalEdgeStyle;rounded=0;orthogonalLoop=1;jettySize=auto;html=1;exitX=1;exitY=0.5;exitDx=0;exitDy=0;entryX=0;entryY=0.75;entryDx=0;entryDy=0;" edge="1" parent="1" source="pkmIxWvEJpx0Uxizd0hY-1" target="pkmIxWvEJpx0Uxizd0hY-7">
          <mxGeometry relative="1" as="geometry" />
        </mxCell>
        <mxCell id="pkmIxWvEJpx0Uxizd0hY-1" value="套餐1" style="ellipse;whiteSpace=wrap;html=1;aspect=fixed;" vertex="1" parent="1">
          <mxGeometry x="220" y="160" width="80" height="80" as="geometry" />
        </mxCell>
        <mxCell id="pkmIxWvEJpx0Uxizd0hY-2" value="活动1" style="whiteSpace=wrap;html=1;aspect=fixed;" vertex="1" parent="1">
          <mxGeometry x="480" y="160" width="80" height="80" as="geometry" />
        </mxCell>
        <mxCell id="pkmIxWvEJpx0Uxizd0hY-14" style="edgeStyle=orthogonalEdgeStyle;rounded=0;orthogonalLoop=1;jettySize=auto;html=1;fillColor=#f8cecc;strokeColor=#b85450;entryX=0;entryY=0.5;entryDx=0;entryDy=0;" edge="1" parent="1" source="pkmIxWvEJpx0Uxizd0hY-4" target="pkmIxWvEJpx0Uxizd0hY-6">
          <mxGeometry relative="1" as="geometry">
            <mxPoint x="470" y="330" as="targetPoint" />
          </mxGeometry>
        </mxCell>
        <mxCell id="pkmIxWvEJpx0Uxizd0hY-15" style="edgeStyle=orthogonalEdgeStyle;rounded=0;orthogonalLoop=1;jettySize=auto;html=1;exitX=1;exitY=0.5;exitDx=0;exitDy=0;entryX=0;entryY=0.5;entryDx=0;entryDy=0;fillColor=#f8cecc;strokeColor=#b85450;" edge="1" parent="1" source="pkmIxWvEJpx0Uxizd0hY-4" target="pkmIxWvEJpx0Uxizd0hY-7">
          <mxGeometry relative="1" as="geometry" />
        </mxCell>
        <mxCell id="pkmIxWvEJpx0Uxizd0hY-4" value="套餐2" style="ellipse;whiteSpace=wrap;html=1;aspect=fixed;" vertex="1" parent="1">
          <mxGeometry x="220" y="270" width="80" height="80" as="geometry" />
        </mxCell>
        <mxCell id="pkmIxWvEJpx0Uxizd0hY-6" value="活动2" style="whiteSpace=wrap;html=1;aspect=fixed;" vertex="1" parent="1">
          <mxGeometry x="480" y="270" width="80" height="80" as="geometry" />
        </mxCell>
        <mxCell id="pkmIxWvEJpx0Uxizd0hY-7" value="活动3" style="whiteSpace=wrap;html=1;aspect=fixed;" vertex="1" parent="1">
          <mxGeometry x="480" y="390" width="80" height="80" as="geometry" />
        </mxCell>
        <mxCell id="pkmIxWvEJpx0Uxizd0hY-20" value="套餐1：活动1，2，3&lt;br&gt;套餐2：活动2，3" style="text;html=1;align=center;verticalAlign=middle;resizable=0;points=[];autosize=1;strokeColor=none;fillColor=none;" vertex="1" parent="1">
          <mxGeometry x="35" y="160" width="130" height="40" as="geometry" />
        </mxCell>
      </root>
    </mxGraphModel>
  </diagram>
</mxfile>
